<?xml version="1.0" encoding="UTF-8" standalone="no"?>
<svg
   xmlns:dc="http://purl.org/dc/elements/1.1/"
   xmlns:cc="http://creativecommons.org/ns#"
   xmlns:rdf="http://www.w3.org/1999/02/22-rdf-syntax-ns#"
   xmlns:svg="http://www.w3.org/2000/svg"
   xmlns="http://www.w3.org/2000/svg"
   xmlns:sodipodi="http://sodipodi.sourceforge.net/DTD/sodipodi-0.dtd"
   xmlns:inkscape="http://www.inkscape.org/namespaces/inkscape"
   width="210mm"
   height="297mm"
   viewBox="0 0 210 297"
   version="1.1"
   id="svg8"
   inkscape:version="1.0.2-2 (e86c870879, 2021-01-15)"
   sodipodi:docname="run.svg">
  <defs
     id="defs2" />
  <sodipodi:namedview
     id="base"
     pagecolor="#ffffff"
     bordercolor="#666666"
     borderopacity="1.0"
     inkscape:pageopacity="0.0"
     inkscape:pageshadow="2"
     inkscape:zoom="5.6"
     inkscape:cx="441.31645"
     inkscape:cy="104.22194"
     inkscape:document-units="mm"
     inkscape:current-layer="layer1"
     inkscape:document-rotation="0"
     showgrid="false"
     inkscape:window-width="1920"
     inkscape:window-height="1017"
     inkscape:window-x="-8"
     inkscape:window-y="-8"
     inkscape:window-maximized="1" />
  <metadata
     id="metadata5">
    <rdf:RDF>
      <cc:Work
         rdf:about="">
        <dc:format>image/svg+xml</dc:format>
        <dc:type
           rdf:resource="http://purl.org/dc/dcmitype/StillImage" />
        <dc:title />
      </cc:Work>
    </rdf:RDF>
  </metadata>
  <g
     inkscape:label="Layer 1"
     inkscape:groupmode="layer"
     id="layer1">
    <path
       sodipodi:type="star"
       style="opacity:1;fill:#00af00;fill-opacity:1;stroke:#000000;stroke-width:0.07781128;stroke-linejoin:round;stroke-miterlimit:4;stroke-dasharray:none;paint-order:stroke fill markers;stroke-opacity:1"
       id="path837"
       sodipodi:sides="3"
       sodipodi:cx="0"
       sodipodi:cy="42.172398"
       sodipodi:r1="0.47247252"
       sodipodi:r2="0.23623627"
       sodipodi:arg1="1.5676713"
       sodipodi:arg2="2.6148689"
       inkscape:flatsided="true"
       inkscape:rounded="0"
       inkscape:randomized="0.001"
       d="m 0.00106561,42.644471 -0.41086645,-0.707306 0.81799355,-0.002 z"
       inkscape:transform-center-x="-1.1382258"
       inkscape:transform-center-y="0.0059721251"
       transform="matrix(0,-12.431246,9.689825,0,-380.22645,27.120776)" />
    <rect
       style="fill:#0000ff;fill-opacity:1;fill-rule:evenodd;stroke:#000000;stroke-width:0.3;stroke-linejoin:round;stroke-miterlimit:4;stroke-dasharray:none;stroke-opacity:1"
       id="rect839"
       width="1.8043908"
       height="10.880004"
       x="26.437695"
       y="34.698582"
       ry="0.83354884"
       inkscape:export-xdpi="46.814644"
       inkscape:export-ydpi="46.814644" />
    <rect
       style="fill:#0000ff;fill-opacity:1;fill-rule:evenodd;stroke:#000000;stroke-width:0.3;stroke-linejoin:round;stroke-miterlimit:4;stroke-dasharray:none;stroke-opacity:1"
       id="rect839-4"
       width="1.8043908"
       height="10.880004"
       x="30.301521"
       y="34.698582"
       ry="0.83354884"
       inkscape:export-xdpi="46.814644"
       inkscape:export-ydpi="46.814644" />
    <rect
       style="fill:#ff0000;fill-opacity:1;fill-rule:evenodd;stroke:#000000;stroke-width:0.4;stroke-miterlimit:4;stroke-dasharray:none;stroke-opacity:1"
       id="rect861"
       width="10"
       height="10"
       x="24.588797"
       y="48.91032"
       ry="0.855735"
       inkscape:export-xdpi="46.814644"
       inkscape:export-ydpi="46.814644" />
    <path
       id="rect863"
       style="fill:#00af00;fill-opacity:1;fill-rule:evenodd;stroke:#000000;stroke-width:0.75590552;stroke-miterlimit:4;stroke-dasharray:none;stroke-opacity:1;stroke-linejoin:round"
       d="M 237.58984 78.400391 L 218.46289 104.37695 L 230.66602 104.35352 L 230.66602 136.07227 L 244.69141 136.07227 L 244.69141 104.32812 L 256.89453 104.30469 L 237.58984 78.400391 z "
       transform="scale(0.26458333)" />
    <text
       xml:space="preserve"
       style="font-style:normal;font-weight:normal;font-size:2.74321px;line-height:1.25;font-family:sans-serif;letter-spacing:0px;word-spacing:0px;fill:#000000;fill-opacity:1;stroke:none;stroke-width:0.0685804"
       x="60.918831"
       y="26.635267"
       id="text903"><tspan
         sodipodi:role="line"
         id="tspan901"
         x="60.918831"
         y="26.635267"
         style="stroke-width:0.0685804">X+</tspan></text>
    <text
       xml:space="preserve"
       style="font-style:normal;font-weight:normal;font-size:10.5833px;line-height:1.25;font-family:sans-serif;letter-spacing:0px;word-spacing:0px;fill:#000000;fill-opacity:1;stroke:none;stroke-width:0.264583"
       x="16.437077"
       y="72.229591"
       id="text839"><tspan
         sodipodi:role="line"
         id="tspan837"
         x="16.437077"
         y="72.229591"
         style="stroke-width:0.264583" /></text>
    <path
       id="rect839-3"
       style="fill:#000000;fill-opacity:1;fill-rule:evenodd;stroke:#000000;stroke-width:1.13386;stroke-linejoin:round;stroke-miterlimit:4;stroke-dasharray:none;stroke-opacity:1"
       d="M 124.00195 272.24609 C 123.19665 272.24609 122.39051 272.55481 121.77344 273.17188 L 121.40625 273.53906 L 97.152344 297.79297 C 95.918207 299.02711 95.918207 301.01391 97.152344 302.24805 L 97.519531 302.61523 C 98.753668 303.84937 100.74047 303.84937 101.97461 302.61523 L 124.00195 280.58789 L 146.0293 302.61523 C 147.26343 303.84937 149.25024 303.84937 150.48438 302.61523 L 150.85156 302.24805 C 152.0857 301.01391 152.0857 299.02711 150.85156 297.79297 L 126.5957 273.53906 L 126.23047 273.17188 L 126.22852 273.17188 C 125.61145 272.55481 124.80726 272.24609 124.00195 272.24609 z "
       transform="scale(0.26458333)"
       inkscape:export-xdpi="34.484314"
       inkscape:export-ydpi="34.484314" />
    <path
       id="rect839-3-9"
       style="fill:#000000;fill-opacity:1;fill-rule:evenodd;stroke:#000000;stroke-width:0.3;stroke-linejoin:round;stroke-miterlimit:4;stroke-dasharray:none;stroke-opacity:1"
       d="m 32.808847,78.920857 c -0.213069,0 -0.42636,0.08168 -0.589627,0.244949 l -0.09715,0.09715 -6.417179,6.417181 c -0.326532,0.326533 -0.326532,0.852207 0,1.17874 l 0.09715,0.09715 c 0.326532,0.326533 0.852207,0.326533 1.17874,0 l 5.828067,-5.828067 5.828069,5.828067 c 0.326531,0.326533 0.852208,0.326533 1.17874,0 l 0.09715,-0.09715 c 0.326533,-0.326533 0.326533,-0.852207 0,-1.17874 l -6.417696,-6.417181 -0.09663,-0.09715 h -5.29e-4 C 33.23468,79.002539 33.021905,78.920857 32.808834,78.920857 Z"
       inkscape:export-xdpi="34.484314"
       inkscape:export-ydpi="34.484314" />
    <path
       id="rect839-3-1"
       style="fill:#000000;fill-opacity:1;fill-rule:evenodd;stroke:#000000;stroke-width:0.3;stroke-linejoin:round;stroke-miterlimit:4;stroke-dasharray:none;stroke-opacity:1"
       d="m 33.072919,110.48787 c 0.213069,0 0.42636,-0.0817 0.589627,-0.24495 l 0.09715,-0.0971 6.417179,-6.41718 c 0.326532,-0.32653 0.326532,-0.8522 0,-1.17874 l -0.09715,-0.0971 c -0.326532,-0.32653 -0.852207,-0.32653 -1.17874,0 l -5.828067,5.82807 -5.828069,-5.82807 c -0.326531,-0.32653 -0.852208,-0.32653 -1.17874,0 l -0.09715,0.0971 c -0.326533,0.32654 -0.326533,0.85221 0,1.17874 l 6.417696,6.41718 0.09663,0.0971 h 5.29e-4 c 0.163272,0.16327 0.376047,0.24495 0.589118,0.24495 z"
       inkscape:export-xdpi="34.484314"
       inkscape:export-ydpi="34.484314" />
    <path
       id="rect839-3-9-9"
       style="fill:#000000;fill-opacity:1;fill-rule:evenodd;stroke:#000000;stroke-width:0.3;stroke-linejoin:round;stroke-miterlimit:4;stroke-dasharray:none;stroke-opacity:1"
       d="m 33.072921,103.59879 c 0.213069,0 0.42636,-0.0817 0.589627,-0.24495 l 0.09715,-0.0971 6.417179,-6.417182 c 0.326532,-0.32653 0.326532,-0.8522 0,-1.17874 l -0.09715,-0.0971 c -0.326532,-0.32653 -0.852207,-0.32653 -1.17874,0 l -5.828067,5.828072 -5.828069,-5.828072 c -0.326531,-0.32653 -0.852208,-0.32653 -1.17874,0 l -0.09715,0.0971 c -0.326533,0.32654 -0.326533,0.85221 0,1.17874 l 6.417696,6.417182 0.09663,0.0971 h 5.29e-4 c 0.163272,0.16327 0.376047,0.24495 0.589118,0.24495 z"
       inkscape:export-xdpi="34.484314"
       inkscape:export-ydpi="34.484314" />
    <path
       id="rect863-5"
       style="fill:#00af00;fill-opacity:1;fill-rule:evenodd;stroke:#000000;stroke-width:0.2;stroke-linejoin:round;stroke-miterlimit:4;stroke-dasharray:none;stroke-opacity:1"
       d="m 79.870285,36.227347 5.060672,-6.872965 -3.228744,0.0062 v -8.392253 h -3.710885 v 8.398973 l -3.228742,0.0062 z"
       inkscape:export-xdpi="97.990509"
       inkscape:export-ydpi="97.990509" />
    <text
       xml:space="preserve"
       style="font-style:normal;font-weight:normal;font-size:2.74321px;line-height:1.25;font-family:sans-serif;letter-spacing:0px;word-spacing:0px;fill:#000000;fill-opacity:1;stroke:none;stroke-width:0.0685804"
       x="78.404846"
       y="32.41497"
       id="text903-3"
       inkscape:export-xdpi="97.990509"
       inkscape:export-ydpi="97.990509"><tspan
         sodipodi:role="line"
         id="tspan901-1"
         x="78.404846"
         y="32.41497"
         style="stroke-width:0.0685804">A-</tspan></text>
    <path
       id="rect863-2"
       style="fill:#00af00;fill-opacity:1;fill-rule:evenodd;stroke:#000000;stroke-width:0.2;stroke-linejoin:round;stroke-miterlimit:4;stroke-dasharray:none;stroke-opacity:1"
       d="m 93.862368,24.977339 6.872962,5.060672 -0.006,-3.228744 h 8.39225 v -3.710885 h -8.39897 l -0.006,-3.228742 z"
       inkscape:export-xdpi="97.990509"
       inkscape:export-ydpi="97.990509" />
    <text
       xml:space="preserve"
       style="font-style:normal;font-weight:normal;font-size:2.74321px;line-height:1.25;font-family:sans-serif;letter-spacing:0px;word-spacing:0px;fill:#000000;fill-opacity:1;stroke:none;stroke-width:0.0685804"
       x="96.684792"
       y="25.951052"
       id="text903-1"
       inkscape:export-xdpi="97.990509"
       inkscape:export-ydpi="97.990509"><tspan
         sodipodi:role="line"
         id="tspan901-2"
         x="96.684792"
         y="25.951052"
         style="stroke-width:0.0685804">X-</tspan></text>
    <path
       id="rect863-2-5"
       style="fill:#00af00;fill-opacity:1;fill-rule:evenodd;stroke:#000000;stroke-width:0.2;stroke-linejoin:round;stroke-miterlimit:4;stroke-dasharray:none;stroke-opacity:1"
       d="m 127.54255,25.631619 -6.87296,-5.06067 0.006,3.22874 h -8.39225 v 3.71089 h 8.39897 l 0.006,3.22874 z"
       inkscape:export-xdpi="97.990509"
       inkscape:export-ydpi="97.990509" />
    <text
       xml:space="preserve"
       style="font-style:normal;font-weight:normal;font-size:2.74321px;line-height:1.25;font-family:sans-serif;letter-spacing:0px;word-spacing:0px;fill:#000000;fill-opacity:1;stroke:none;stroke-width:0.0685804"
       x="121.8162"
       y="26.652353"
       id="text903-1-1"
       inkscape:export-xdpi="97.990509"
       inkscape:export-ydpi="97.990509"><tspan
         sodipodi:role="line"
         id="tspan901-2-7"
         x="121.8162"
         y="26.652353"
         style="stroke-width:0.0685804">X+</tspan></text>
  </g>
</svg>
